<svg xmlns="http://www.w3.org/2000/svg" width="600" height="300" viewBox="0 0 600 300">
  <defs>
    <linearGradient id="cbg_accessories" x1="0%" y1="0%" x2="100%" y2="100%">
      <stop offset="0%" stop-color="#0f0f0f"/>
      <stop offset="50%" stop-color="#111"/>
      <stop offset="100%" stop-color="#0a0a0a"/>
    </linearGradient>
    <linearGradient id="glow_accessories" x1="0%" y1="0%" x2="0%" y2="100%">
      <stop offset="0%" stop-color="#F59E0B22"/>
      <stop offset="100%" stop-color="transparent"/>
    </linearGradient>
    <radialGradient id="rad_accessories" cx="50%" cy="50%" r="50%">
      <stop offset="0%" stop-color="#F59E0B15"/>
      <stop offset="100%" stop-color="transparent"/>
    </radialGradient>
  </defs>
  <rect width="600" height="300" rx="20" fill="url(#cbg_accessories)"/>
  <rect x="1" y="1" width="598" height="298" rx="19" fill="none" stroke="#F59E0B22" stroke-width="1"/>
  <rect width="600" height="150" rx="20" fill="url(#glow_accessories)"/>
  <circle cx="300" cy="150" r="120" fill="url(#rad_accessories)"/>
  <!-- Icon circle -->
  <circle cx="300" cy="120" r="50" fill="#F59E0B15" stroke="#F59E0B33" stroke-width="2"/>
  <g transform="translate(276, 96) scale(2)" fill="none" stroke="#F59E0B" stroke-width="1.5" stroke-linecap="round" stroke-linejoin="round">
    <path d="M20 7l-8-4-8 4m16 0l-8 4m8-4v10l-8 4m0-10L4 7m8 4v10M4 7v10l8 4"/>
  </g>
  <text x="300" y="210" text-anchor="middle" font-family="Segoe UI,system-ui,sans-serif" font-size="22" font-weight="800" fill="white" letter-spacing="6">ACCESSORIES</text>
  <text x="300" y="235" text-anchor="middle" font-family="Segoe UI,system-ui,sans-serif" font-size="11" fill="#666" letter-spacing="2">EXPLORE COLLECTION</text>
  <rect x="240" y="248" width="120" height="2" rx="1" fill="#F59E0B44"/>
</svg>