<svg xmlns="http://www.w3.org/2000/svg" width="600" height="300" viewBox="0 0 600 300">
  <defs>
    <linearGradient id="cbg_desktops" x1="0%" y1="0%" x2="100%" y2="100%">
      <stop offset="0%" stop-color="#0f0f0f"/>
      <stop offset="50%" stop-color="#111"/>
      <stop offset="100%" stop-color="#0a0a0a"/>
    </linearGradient>
    <linearGradient id="glow_desktops" x1="0%" y1="0%" x2="0%" y2="100%">
      <stop offset="0%" stop-color="#8B5CF622"/>
      <stop offset="100%" stop-color="transparent"/>
    </linearGradient>
    <radialGradient id="rad_desktops" cx="50%" cy="50%" r="50%">
      <stop offset="0%" stop-color="#8B5CF615"/>
      <stop offset="100%" stop-color="transparent"/>
    </radialGradient>
  </defs>
  <rect width="600" height="300" rx="20" fill="url(#cbg_desktops)"/>
  <rect x="1" y="1" width="598" height="298" rx="19" fill="none" stroke="#8B5CF622" stroke-width="1"/>
  <rect width="600" height="150" rx="20" fill="url(#glow_desktops)"/>
  <circle cx="300" cy="150" r="120" fill="url(#rad_desktops)"/>
  <!-- Icon circle -->
  <circle cx="300" cy="120" r="50" fill="#8B5CF615" stroke="#8B5CF633" stroke-width="2"/>
  <g transform="translate(276, 96) scale(2)" fill="none" stroke="#8B5CF6" stroke-width="1.5" stroke-linecap="round" stroke-linejoin="round">
    <path d="M4 5h16a1 1 0 011 1v10a1 1 0 01-1 1H4a1 1 0 01-1-1V6a1 1 0 011-1zm8 14h-2v2H7v1h10v-1h-3v-2h-2z"/>
  </g>
  <text x="300" y="210" text-anchor="middle" font-family="Segoe UI,system-ui,sans-serif" font-size="22" font-weight="800" fill="white" letter-spacing="6">DESKTOPS</text>
  <text x="300" y="235" text-anchor="middle" font-family="Segoe UI,system-ui,sans-serif" font-size="11" fill="#666" letter-spacing="2">EXPLORE COLLECTION</text>
  <rect x="240" y="248" width="120" height="2" rx="1" fill="#8B5CF644"/>
</svg>