<svg xmlns="http://www.w3.org/2000/svg" width="600" height="300" viewBox="0 0 600 300">
  <defs>
    <linearGradient id="cbg_gaming" x1="0%" y1="0%" x2="100%" y2="100%">
      <stop offset="0%" stop-color="#0f0f0f"/>
      <stop offset="50%" stop-color="#111"/>
      <stop offset="100%" stop-color="#0a0a0a"/>
    </linearGradient>
    <linearGradient id="glow_gaming" x1="0%" y1="0%" x2="0%" y2="100%">
      <stop offset="0%" stop-color="#EF444422"/>
      <stop offset="100%" stop-color="transparent"/>
    </linearGradient>
    <radialGradient id="rad_gaming" cx="50%" cy="50%" r="50%">
      <stop offset="0%" stop-color="#EF444415"/>
      <stop offset="100%" stop-color="transparent"/>
    </radialGradient>
  </defs>
  <rect width="600" height="300" rx="20" fill="url(#cbg_gaming)"/>
  <rect x="1" y="1" width="598" height="298" rx="19" fill="none" stroke="#EF444422" stroke-width="1"/>
  <rect width="600" height="150" rx="20" fill="url(#glow_gaming)"/>
  <circle cx="300" cy="150" r="120" fill="url(#rad_gaming)"/>
  <!-- Icon circle -->
  <circle cx="300" cy="120" r="50" fill="#EF444415" stroke="#EF444433" stroke-width="2"/>
  <g transform="translate(276, 96) scale(2)" fill="none" stroke="#EF4444" stroke-width="1.5" stroke-linecap="round" stroke-linejoin="round">
    <path d="M6 11h2v2H6v-2zm4-3h2v2h-2V8zm4 3h2v2h-2v-2zM4 7a2 2 0 012-2h12a2 2 0 012 2v10a2 2 0 01-2 2H6a2 2 0 01-2-2V7z"/>
  </g>
  <text x="300" y="210" text-anchor="middle" font-family="Segoe UI,system-ui,sans-serif" font-size="22" font-weight="800" fill="white" letter-spacing="6">GAMING</text>
  <text x="300" y="235" text-anchor="middle" font-family="Segoe UI,system-ui,sans-serif" font-size="11" fill="#666" letter-spacing="2">EXPLORE COLLECTION</text>
  <rect x="240" y="248" width="120" height="2" rx="1" fill="#EF444444"/>
</svg>