<svg xmlns="http://www.w3.org/2000/svg" width="600" height="300" viewBox="0 0 600 300">
  <defs>
    <linearGradient id="cbg_laptops" x1="0%" y1="0%" x2="100%" y2="100%">
      <stop offset="0%" stop-color="#0f0f0f"/>
      <stop offset="50%" stop-color="#111"/>
      <stop offset="100%" stop-color="#0a0a0a"/>
    </linearGradient>
    <linearGradient id="glow_laptops" x1="0%" y1="0%" x2="0%" y2="100%">
      <stop offset="0%" stop-color="#3B82F622"/>
      <stop offset="100%" stop-color="transparent"/>
    </linearGradient>
    <radialGradient id="rad_laptops" cx="50%" cy="50%" r="50%">
      <stop offset="0%" stop-color="#3B82F615"/>
      <stop offset="100%" stop-color="transparent"/>
    </radialGradient>
  </defs>
  <rect width="600" height="300" rx="20" fill="url(#cbg_laptops)"/>
  <rect x="1" y="1" width="598" height="298" rx="19" fill="none" stroke="#3B82F622" stroke-width="1"/>
  <rect width="600" height="150" rx="20" fill="url(#glow_laptops)"/>
  <circle cx="300" cy="150" r="120" fill="url(#rad_laptops)"/>
  <!-- Icon circle -->
  <circle cx="300" cy="120" r="50" fill="#3B82F615" stroke="#3B82F633" stroke-width="2"/>
  <g transform="translate(276, 96) scale(2)" fill="none" stroke="#3B82F6" stroke-width="1.5" stroke-linecap="round" stroke-linejoin="round">
    <path d="M20 18h-2V8a2 2 0 00-2-2H8a2 2 0 00-2 2v10H4a1 1 0 00-1 1v1a2 2 0 002 2h14a2 2 0 002-2v-1a1 1 0 00-1-1zM8 8h8v10H8V8z"/>
  </g>
  <text x="300" y="210" text-anchor="middle" font-family="Segoe UI,system-ui,sans-serif" font-size="22" font-weight="800" fill="white" letter-spacing="6">LAPTOPS</text>
  <text x="300" y="235" text-anchor="middle" font-family="Segoe UI,system-ui,sans-serif" font-size="11" fill="#666" letter-spacing="2">EXPLORE COLLECTION</text>
  <rect x="240" y="248" width="120" height="2" rx="1" fill="#3B82F644"/>
</svg>